Coordinates
version=1
nRows=11
nColumns=63
inDegrees=yes

Units are S.I. units (second, meters, Newtons, ...)
If the header above contains a line with 'inDegrees', this indicates whether rotational values are in degrees (yes) or radians (no).

endheader
time	pelvis_tilt	pelvis_list	pelvis_rotation	pelvis_tx	pelvis_ty	pelvis_tz	hip_flexion_r	hip_adduction_r	hip_rotation_r	knee_angle_r	knee_angle_r_beta	ankle_angle_r	subtalar_angle_r	mtp_angle_r	hip_flexion_l	hip_adduction_l	hip_rotation_l	knee_angle_l	knee_angle_l_beta	ankle_angle_l	subtalar_angle_l	mtp_angle_l	L5_S1_Flex_Ext	L5_S1_Lat_Bending	L5_S1_axial_rotation	L4_L5_Flex_Ext	L4_L5_Lat_Bending	L4_L5_axial_rotation	L3_L4_Flex_Ext	L3_L4_Lat_Bending	L3_L4_axial_rotation	L2_L3_Flex_Ext	L2_L3_Lat_Bending	L2_L3_axial_rotation	L1_L2_Flex_Ext	L1_L2_Lat_Bending	L1_L2_axial_rotation	L1_T12_Flex_Ext	L1_T12_Lat_Bending	L1_T12_axial_rotation	Abs_r3	Abs_r2	Abs_r1	Abs_t1	Abs_t2	neck_flexion	neck_bending	neck_rotation	arm_flex_r	arm_add_r	arm_rot_r	elbow_flex_r	pro_sup_r	wrist_flex_r	wrist_dev_r	arm_flex_l	arm_add_l	arm_rot_l	elbow_flex_l	pro_sup_l	wrist_flex_l	wrist_dev_l
1.070175	1.622768	-13.295135	98.204813	0.180988	0.925889	0.523038	17.705333	-0.273486	-15.851872	10.928092	0.190731	26.092388	1.662029	0.000000	22.385499	-1.056115	8.662478	10.706579	0.186865	26.626623	6.782958	0.000000	0.051998	0.561855	-1.226338	0.096565	0.747268	-1.302984	0.085427	1.366095	-1.302984	0.059428	1.366095	-1.073046	0.048285	1.145736	-0.996400	0.029711	0.870314	-0.919754	0.371413	6.355821	-6.820524	0.000000	0.000000	22.764155	-1.923784	29.412426	3.100586	-16.440618	25.274405	42.573354	77.369471	-3.450766	3.813909	30.003309	-69.374523	-36.735333	144.098944	88.746412	-0.371453	5.276059
1.087719	1.628106	-13.671888	98.113680	0.181491	0.925365	0.523250	17.915886	-0.267899	-16.030265	10.530205	0.183787	26.059026	2.338008	0.000000	22.595761	-1.089284	8.502364	10.317814	0.180080	26.619265	6.859146	0.000000	0.060729	0.575094	-1.364583	0.112780	0.764875	-1.449869	0.099772	1.398283	-1.449869	0.069407	1.398283	-1.194010	0.056393	1.172732	-1.108724	0.034701	0.890821	-1.023437	0.433783	6.505578	-7.589401	0.000000	0.000000	22.891369	-1.696356	31.792093	3.739983	-16.362146	26.202773	42.707760	77.186654	-3.419091	3.857915	28.104965	-70.132838	-40.251807	143.104450	90.562167	-1.850647	6.151515
1.105263	1.674746	-14.007874	98.051471	0.181782	0.924821	0.523575	18.129823	-0.238380	-16.241681	10.198165	0.177992	26.032332	2.986066	0.000000	22.796582	-1.132499	8.554364	9.977735	0.174144	26.610675	6.698256	0.000000	0.065954	0.592932	-1.487433	0.122484	0.788599	-1.580397	0.108356	1.441655	-1.580397	0.075379	1.441655	-1.301504	0.061245	1.209107	-1.208539	0.037686	0.918452	-1.115574	0.471104	6.707364	-8.272654	0.000000	0.000000	23.077972	-1.576737	33.830047	4.474683	-16.345426	27.344928	42.551530	77.292186	-3.665553	3.814951	26.670401	-70.845693	-42.433794	142.176775	90.742741	-3.350079	7.144342
1.122807	1.728798	-14.261463	97.986140	0.182018	0.924272	0.524104	18.322325	-0.195108	-16.385915	9.957841	0.173797	26.017316	3.506726	0.000000	22.947790	-1.177802	8.758596	9.695814	0.169224	26.611238	6.340448	0.000000	0.060587	0.605342	-1.546003	0.112516	0.805105	-1.642628	0.099538	1.471829	-1.642628	0.069245	1.471829	-1.352753	0.056261	1.234414	-1.256128	0.034619	0.937675	-1.159502	0.432766	6.847752	-8.598406	0.000000	0.000000	23.281740	-1.532023	35.027438	5.063058	-16.351541	28.081789	42.266242	77.674087	-4.032190	3.663606	26.709030	-71.275785	-42.261809	141.224902	89.739858	-4.746671	8.363197
1.140351	1.773199	-14.449850	97.907821	0.182239	0.923701	0.524820	18.508439	-0.153447	-16.462832	9.814299	0.171292	25.998270	3.892737	0.000000	23.081783	-1.210908	9.059673	9.510376	0.165987	26.622599	5.823222	0.000000	0.046788	0.609349	-1.543042	0.086890	0.810434	-1.639482	0.076868	1.481570	-1.639482	0.053474	1.481570	-1.350162	0.043447	1.242584	-1.253721	0.026735	0.943881	-1.157281	0.334202	6.893074	-8.581936	0.000000	0.000000	23.446438	-1.460661	35.459544	5.474636	-16.380582	28.384244	41.935590	78.233478	-4.490309	3.385688	28.147889	-71.504728	-39.936160	140.337267	88.275556	-5.937126	9.696095
1.157895	1.788336	-14.569732	97.803174	0.182585	0.923091	0.525721	18.682071	-0.122777	-16.489962	9.770421	0.170526	25.985292	4.176412	0.000000	23.182228	-1.231190	9.443606	9.400887	0.164076	26.668094	5.191430	0.000000	0.024286	0.599350	-1.477952	0.045101	0.797136	-1.570324	0.039899	1.457260	-1.570324	0.027756	1.457260	-1.293208	0.022552	1.222195	-1.200836	0.013877	0.928394	-1.108464	0.173472	6.779971	-8.219925	0.000000	0.000000	23.573592	-1.382368	35.028819	5.740820	-16.417513	28.377280	41.508566	78.915235	-5.100462	2.887507	31.299906	-71.594031	-35.218330	139.561611	86.489437	-7.104303	11.135145
1.175439	1.758499	-14.658319	97.662871	0.183026	0.922402	0.526767	18.888140	-0.127181	-16.433738	9.851368	0.171939	25.976731	4.313002	0.000000	23.295112	-1.213819	9.873142	9.396034	0.163992	26.739734	4.439161	0.000000	-0.003262	0.575403	-1.364705	-0.006058	0.765286	-1.449999	-0.005359	1.399035	-1.449999	-0.003728	1.399035	-1.194117	-0.003029	1.173362	-1.108823	-0.001864	0.891299	-1.023529	-0.023299	6.509074	-7.590080	0.000000	0.000000	23.627214	-1.205690	34.049513	5.833456	-16.423538	27.917144	41.062227	79.723005	-5.730545	2.272411	35.688977	-71.663777	-28.862193	138.968177	84.649552	-7.925937	12.551096
1.192982	1.779493	-14.754755	97.535563	0.183337	0.921626	0.527757	19.115150	-0.090857	-16.406093	9.962565	0.173880	25.932385	4.408564	0.000000	23.462760	-1.221592	10.442916	9.489895	0.165630	26.862434	3.543234	0.000000	-0.027204	0.556863	-1.250488	-0.050521	0.740628	-1.328644	-0.044694	1.353957	-1.328644	-0.031092	1.353957	-1.094177	-0.025262	1.135555	-1.016022	-0.015544	0.862581	-0.937866	-0.194317	6.299346	-6.954842	0.000000	0.000000	23.596898	-1.026874	33.112901	5.845464	-16.502786	27.266065	40.661705	80.674264	-6.303200	1.710751	39.804755	-71.841417	-22.689104	138.678831	82.903841	-8.178815	13.609228
1.210526	1.810431	-14.863465	97.404809	0.183643	0.920749	0.528768	19.382276	-0.049187	-16.392715	10.126460	0.176740	25.883162	4.470235	0.000000	23.699059	-1.227627	11.069934	9.701949	0.169331	27.017844	2.570169	0.000000	-0.050442	0.536210	-1.127140	-0.093676	0.713159	-1.197587	-0.082872	1.303741	-1.197587	-0.057650	1.303741	-0.986248	-0.046841	1.093440	-0.915801	-0.028823	0.830589	-0.845355	-0.360304	6.065715	-6.268816	0.000000	0.000000	23.507711	-0.712966	32.317217	5.779087	-16.597604	26.399958	40.239072	81.648668	-6.827786	1.166298	43.951170	-72.011982	-16.626342	138.623731	81.201594	-7.992290	14.405752
1.228070	1.876453	-14.993535	97.263584	0.183905	0.919768	0.529685	19.687563	0.026323	-16.338053	10.325944	0.180222	25.829805	4.450579	0.000000	23.997228	-1.249477	11.804362	10.014681	0.174789	27.185008	1.449585	0.000000	-0.071068	0.519931	-0.998932	-0.131980	0.691508	-1.061365	-0.116758	1.264160	-1.061365	-0.081224	1.264160	-0.874066	-0.065994	1.060243	-0.811632	-0.040608	0.805373	-0.749199	-0.507631	5.881565	-5.555761	0.000000	0.000000	23.421496	-0.381234	31.730188	5.581322	-16.686977	25.122873	39.908410	82.576640	-7.275919	0.871117	47.602739	-72.126957	-11.441996	138.733114	79.770767	-7.267972	14.731316
1.245614	1.982111	-15.185439	97.163444	0.184060	0.918655	0.530474	20.047508	0.119537	-16.325540	10.514984	0.183521	25.782602	4.434755	0.000000	24.402434	-1.275157	12.590557	10.417325	0.181817	27.358767	0.318015	0.000000	-0.081815	0.510227	-0.901133	-0.151939	0.678602	-0.957454	-0.134414	1.240566	-0.957454	-0.093507	1.240566	-0.788491	-0.075974	1.040455	-0.732171	-0.046749	0.790342	-0.675850	-0.584398	5.771792	-5.011831	0.000000	0.000000	23.321866	-0.016302	31.604960	5.384461	-16.817534	23.769257	39.614146	83.383089	-7.646319	0.878258	50.152758	-72.207494	-7.920407	138.995103	78.239457	-6.100353	14.654763
